<svg xmlns="http://www.w3.org/2000/svg" xml:space="preserve" viewBox="0 0 511.986 511.986">
<path d="M370.348 427.927c-8.828-9.156-11.203-19.187-7.266-30.624 3.297-9.594 9.828-16.516 9.891-16.594l-7.688-7.375-7.656-7.438c-.953 1-9.562 10.094-14.437 23.656-6.905 19.203-2.734 38.093 11.781 53.154 9.077 9.438 11.827 20.375 8.405 33.375-2.172 8.297-6.297 14.937-8.046 17.499a10.6 10.6 0 0 0-3.344 7.75c0 5.875 4.78 10.655 10.671 10.655 3.453 0 6.531-1.656 8.469-4.219l.172.125c.344-.438 8.453-10.905 12.5-25.576 5.658-20.546 1.002-39.358-13.452-54.388"
 style="fill:#e6e9ed"/>
<path d="M383.989 362.646h-10.672v-15.249H351.99v15.249h-10.672c-5.89 0-10.655 4.781-10.655 10.688 0 5.875 4.766 10.656 10.655 10.656h42.671c5.891 0 10.672-4.781 10.672-10.656 0-5.906-4.781-10.688-10.672-10.688" 
style="fill:#37bc9b"/>
<path d="M178.354 408.599c-9.031-9.391-10.969-23.922-5.766-43.203 4.312-16.062 12.094-29.092 12.172-29.232l-9.125-5.516-9.141-5.5c-1.531 2.547-37.437 62.967-3.516 98.231 22.953 23.89-1.562 72.576-1.797 73.045v.016a10.6 10.6 0 0 0-1.188 4.891c0 5.875 4.781 10.655 10.672 10.655 4.125 0 7.703-2.344 9.469-5.78 1.314-2.547 31.751-62.734-1.78-97.607"
 style="fill:#e6e9ed"/>
 <path d="M191.995 319.992h-10.672v-12.688h-21.328v12.688h-10.671c-5.891 0-10.656 4.781-10.656 10.656 0 5.906 4.766 10.687 10.656 10.687h42.671c5.89 0 10.671-4.78 10.671-10.687 0-5.875-4.781-10.656-10.671-10.656" 
 style="fill:#967adc"/>
<path d="M479.987 245.33c0 64.787-52.53 117.316-117.326 117.316-64.811 0-117.34-52.529-117.34-117.316 0-64.803 52.529-117.333 117.34-117.333 64.796 0 117.326 52.53 117.326 117.333" 
style="fill:#48cfad"/>
<path d="M245.321 245.33c0 26.077 8.516 50.162 22.905 69.646 37.608-28.608 62.437-77.787 62.437-133.645 0-16.359-2.141-32.148-6.094-47.007-46.108 15.813-79.248 59.538-79.248 111.006"
 style="opacity:.1"/>
<path d="M362.661 170.66c-41.248 0-74.67 33.429-74.67 74.67 0 5.891 4.781 10.663 10.672 10.663s10.656-4.772 10.656-10.663c0-29.413 23.922-53.335 53.342-53.335 5.891 0 10.656-4.773 10.656-10.663s-4.765-10.672-10.656-10.672" 
style="opacity:.2;fill:#fff"/>
<path d="M309.319 159.996c0 88.365-62.076 159.996-138.652 159.996-76.592 0-138.668-71.631-138.668-159.996C31.999 71.632 94.075 0 170.667 0c76.576 0 138.652 71.632 138.652 159.996"
 style="fill:#ac92eb"/>
<path d="M170.667 42.663c-53.029 0-95.997 52.53-95.997 117.333 0 5.891 4.766 10.664 10.655 10.664 5.891 0 10.672-4.773 10.672-10.664 0-13.461 2.141-26.476 6.375-38.694 4-11.586 9.703-21.937 16.921-30.765 14-17.109 32.25-26.538 51.374-26.538 5.891 0 10.656-4.773 10.656-10.664s-4.766-10.672-10.656-10.672"
 style="opacity:.2;fill:#fff"/>
</svg>